<?xml version="1.0" encoding="utf-8"?>
<!-- Generator: Adobe Illustrator 18.1.0, SVG Export Plug-In . SVG Version: 6.00 Build 0)  -->
<!DOCTYPE svg PUBLIC "-//W3C//DTD SVG 1.1//EN" "http://www.w3.org/Graphics/SVG/1.1/DTD/svg11.dtd">
<svg version="1.1" id="Layer_1" xmlns="http://www.w3.org/2000/svg" xmlns:xlink="http://www.w3.org/1999/xlink" x="0px" y="0px"
	 viewBox="0 0 100 100" enable-background="new 0 0 100 100" xml:space="preserve">
<g>
	<path fill="#C2C2C2" d="M22.8,24.2c-6.1,0-11.1,5-11.1,11.2s5,11.2,11.1,11.2c6.1,0,11.1-5,11.1-11.2
		C33.9,29.2,28.9,24.2,22.8,24.2 M5.3,98.1h34.9V67c0-9.6-7.8-17.5-17.4-17.5c-9.6,0-17.5,7.8-17.5,17.5V98.1z"/>
	<path fill="#C2C2C2" d="M77.2,24.2c-6.1,0-11.1,5-11.1,11.2s5,11.2,11.1,11.2c6.1,0,11.1-5,11.1-11.2
		C88.4,29.2,83.4,24.2,77.2,24.2 M59.8,98.1h34.9V67c0-9.6-7.8-17.5-17.5-17.5c-9.6,0-17.5,7.8-17.5,17.5V98.1z"/>
	<path fill="#C2C2C2" d="M50.2,8.5c-7.4,0-13.5,6.1-13.5,13.5s6,13.5,13.5,13.5c7.4,0,13.5-6.1,13.5-13.5
		C63.7,14.5,57.6,8.5,50.2,8.5 M29,98h42.3V60.3c0-11.7-9.5-21.2-21.1-21.2C38.5,39.1,29,48.6,29,60.3V98z"/>
</g>
</svg>
